<svg width="54" height="48" viewBox="0 0 54 48" fill="none" xmlns="http://www.w3.org/2000/svg">
<path d="M23.2266 42.6563C23.5185 41.9051 23.6576 41.1032 23.6359 40.2975C23.6804 38.0646 24.2772 35.8775 25.3729 33.9315C26.466 31.9888 28.0247 30.3481 29.9089 29.157C30.6066 28.7828 31.2211 28.2709 31.7152 27.6523C32.2094 27.0338 32.5729 26.3214 32.7838 25.5583C32.9947 24.7952 33.0486 23.9972 32.9422 23.2127C32.8358 22.4282 32.5714 21.6734 32.1649 20.994C31.6219 20.0865 30.8404 19.3425 29.9089 18.8475C29.3749 18.477 28.8619 18.078 28.3729 17.6505L27.1474 16.4505C24.9018 14.0898 23.6425 10.9606 23.6269 7.7025C23.6501 6.89665 23.5117 6.09431 23.2198 5.34283C22.9279 4.59134 22.4885 3.90592 21.9274 3.327C21.3689 2.74873 20.6995 2.28892 19.9594 1.97503C19.2192 1.66113 18.4234 1.49957 17.6194 1.5C16.8159 1.50113 16.0208 1.66341 15.2811 1.97722C14.5414 2.29103 13.8721 2.75001 13.3129 3.327C12.7528 3.90694 12.3141 4.59275 12.0222 5.34431C11.7304 6.09586 11.5914 6.89808 11.6134 7.704C11.6265 8.75016 11.9147 9.77445 12.4489 10.674C12.9813 11.572 13.7414 12.3135 14.6524 12.8235C18.3409 15.1575 20.9074 19.62 20.9074 24.009C20.8983 27.2388 19.663 30.3447 17.4514 32.6985L14.6614 35.1765C13.7509 35.685 12.9904 36.426 12.4564 37.326C11.9209 38.2245 11.6344 39.2505 11.6209 40.2975C11.598 41.1033 11.7365 41.9056 12.0284 42.657C12.3203 43.4085 12.7596 44.0939 13.3204 44.673C13.8791 45.2511 14.5484 45.7108 15.2885 46.0247C16.0287 46.3386 16.8245 46.5003 17.6284 46.5C18.4322 46.4991 19.2276 46.3369 19.9676 46.0231C20.7075 45.7093 21.377 45.2502 21.9364 44.673C22.4962 44.0932 22.9348 43.4076 23.2266 42.6563Z" fill="#3F51B5"/>
<path d="M31.3744 11.04C30.7129 10.047 30.3604 8.8785 30.3604 7.6845C30.3614 6.08509 30.995 4.55101 32.1229 3.417C33.1036 2.43036 34.3971 1.81576 35.7814 1.67863C37.1658 1.54151 38.5547 1.89042 39.7099 2.6655C40.6994 3.32986 41.4698 4.27254 41.9239 5.3745C42.378 6.47771 42.4966 7.69038 42.2647 8.86065C42.0328 10.0309 41.4608 11.1068 40.6204 11.9535C39.7825 12.7979 38.712 13.3734 37.5455 13.6067C36.3791 13.8399 35.1696 13.7203 34.0714 13.263C32.9722 12.8053 32.0336 12.0316 31.3744 11.04Z" fill="#3F51B5"/>
<path d="M33.0319 35.277C34.0204 34.614 35.1829 34.26 36.3709 34.26V34.257C37.1606 34.2579 37.9424 34.4148 38.6713 34.7185C39.4003 35.0223 40.0622 35.4669 40.6189 36.027C41.6028 37.0168 42.2148 38.316 42.3515 39.7049C42.4881 41.0939 42.141 42.4874 41.3689 43.65C40.7098 44.643 39.7706 45.4177 38.6704 45.876C37.5722 46.3333 36.3627 46.4529 35.1963 46.2197C34.0298 45.9864 32.9593 45.4109 32.1214 44.5665C31.2807 43.7197 30.7085 42.6435 30.4766 41.4729C30.2448 40.3024 30.3635 39.0894 30.8179 37.986C31.272 36.8841 32.0425 35.9414 33.0319 35.277Z" fill="#3F51B5"/>
<path d="M50.7364 20.637C51.3962 21.6296 51.7486 22.7962 51.7489 23.9897C51.7479 25.5895 51.1143 27.124 49.9864 28.2585C49.4295 28.8184 48.7676 29.2629 48.0387 29.5666C47.3098 29.8703 46.5281 30.0273 45.7384 30.0285C44.5491 30.0285 43.3868 29.6745 42.3994 29.0115C41.4099 28.3471 40.6395 27.4045 40.1854 26.3025C39.731 25.1991 39.6123 23.9861 39.8441 22.8155C40.076 21.645 40.6482 20.5689 41.4889 19.722C42.3269 18.8773 43.3977 18.3016 44.5645 18.0683C45.7312 17.8351 46.9411 17.9549 48.0394 18.4125C49.1388 18.8706 50.0775 19.6448 50.7364 20.637Z" fill="#3F51B5"/>
<path d="M4.92039 18.9705C5.90889 18.3075 7.06989 17.9535 8.25939 17.9535C9.04891 17.9552 9.83035 18.1125 10.559 18.4165C11.2877 18.7204 11.9492 19.1651 12.5059 19.725C13.4893 20.7145 14.101 22.0131 14.2377 23.4015C14.3743 24.7898 14.0275 26.1828 13.2559 27.345C12.5969 28.3371 11.6583 29.1113 10.5589 29.5695C9.46035 30.0246 8.25139 30.143 7.08541 29.9099C5.91943 29.6767 4.84899 29.1025 4.00989 28.26C3.16945 27.4133 2.59748 26.3374 2.36561 25.1672C2.13375 23.9969 2.25229 22.7842 2.70639 21.681C3.16028 20.5785 3.93072 19.6353 4.92039 18.9705Z" fill="#3F51B5"/>
</svg>
